<?xml version="1.0" encoding="UTF-8"?>
<svg width="17px" height="21px" viewBox="0 0 17 21" version="1.1" xmlns="http://www.w3.org/2000/svg" xmlns:xlink="http://www.w3.org/1999/xlink">
    <title>Final Dissolution Icon</title>
    <g id="Design" stroke="none" stroke-width="1" fill="none" fill-rule="evenodd">
        <g id="New-Dissolution-Icons" transform="translate(-84.000000, -129.000000)" fill="#1669BB">
            <g id="dissolve-icon-copy" transform="translate(84.000000, 76.000000)">
                <g id="dissolve" transform="translate(0.000000, 1.500000)">
                    <g id="Final-Dissolution-Icon" transform="translate(0.000000, 52.173913)">
                        <g id="file-document-edit-outline" fill-rule="nonzero">
                            <g id="Shape">
                                <path d="M11.3291925,9.44099379 L11.3291925,11.0737066 C11.0576475,10.7073736 10.7213745,10.5242071 10.3203735,10.5242071 C9.91937256,10.5242071 9.4675293,10.7925356 8.96484375,11.3291925 L3.77639752,11.3291925 L3.77639752,9.44099379 L11.3291925,9.44099379 Z M8.16290283,16.9937888 L1.88819876,16.9937888 L1.88819876,1.88819876 L8.49689441,1.88819876 L8.49689441,6.60869565 L13.2173913,6.60869565 L13.2173913,11.9381475 C13.5779142,11.5987681 13.8965637,11.2821991 14.1733398,10.9884405 C14.450116,10.6946818 14.760866,10.5423177 15.1055901,10.5313482 L15.1055901,5.66459627 L9.44099379,0 L1.88819876,0 C0.845375379,0 0,0.845375379 0,1.88819876 L0,16.9937888 C0,18.0366122 0.845375379,18.8819876 1.88819876,18.8819876 L7.55279503,18.8819876 C7.29115791,18.4012949 7.32743327,17.9474807 7.66162109,17.520545 C7.99580892,17.0936092 8.16290283,16.9180238 8.16290283,16.9937888 Z M8.57696533,15.1055901 C8.20212809,14.7497804 7.89556885,14.4350806 7.6572876,14.1614907 C7.46262614,13.846132 7.39434814,13.5314322 7.45245361,13.2173913 L3.77639752,13.2173913 L3.77639752,15.1055901 L8.57696533,15.1055901 Z"></path>
                            </g>
                        </g>
                        <polygon id="Path" points="10.2979563 11.786087 12.7173913 14.2169344 15.1368263 11.786087 16.7573913 13.4066519 14.3265438 15.826087 16.7573913 18.245522 15.1368263 19.866087 12.7173913 17.4352395 10.2979563 19.866087 8.6773913 18.245522 11.1082388 15.826087 8.6773913 13.4066519"></polygon>
                    </g>
                </g>
            </g>
        </g>
    </g>
</svg>